<svg id="Layer_1" data-name="Layer 1" xmlns="http://www.w3.org/2000/svg" viewBox="0 0 1600 1600"><defs><style>.cls-1,.cls-6{fill:#fff;}.cls-1,.cls-2,.cls-3,.cls-4,.cls-5{stroke:#45464A;}.cls-1,.cls-2,.cls-3,.cls-4,.cls-5,.cls-8{stroke-linecap:round;stroke-linejoin:round;stroke-width:2px;}.cls-10,.cls-2{fill:#45464A;}.cls-3,.cls-7{fill:#45464A;}.cls-4,.cls-9{fill:#B9D831;}.cls-5,.cls-8{fill:none;}.cls-8{stroke:#fff;}</style></defs><title>Artboard 26</title><rect class="cls-1" x="168.11" y="205.99" width="1264" height="667.12"/><polygon class="cls-2" points="1342.11 223.65 167 275.65 167 205.88 1431 205.88 1342.11 223.65"/><rect class="cls-1" x="140.89" y="194.32" width="1317.33" height="29.33"/><rect class="cls-2" x="140.89" y="862.04" width="1317.33" height="14.67"/><line class="cls-1" x1="213.62" y1="768.68" x2="1385.4" y2="768.68"/><rect class="cls-1" x="828.36" y="310.31" width="557.13" height="414.94"/><rect class="cls-3" x="1076.78" y="386.64" width="51.26" height="262.27"/><rect class="cls-4" x="1009.11" y="450.23" width="51.26" height="198.68"/><rect class="cls-3" x="941.44" y="420.56" width="51.26" height="228.36"/><rect class="cls-4" x="873.78" y="479.91" width="51.26" height="169.01"/><line class="cls-1" x1="873.78" y1="648.92" x2="1128.04" y2="648.92"/><line class="cls-1" x1="1267.22" y1="352.36" x2="1341.89" y2="352.36"/><line class="cls-1" x1="1267.22" y1="376.73" x2="1341.89" y2="376.73"/><rect class="cls-5" x="213.62" y="395.47" width="367.63" height="329.78"/><rect class="cls-5" x="213.62" y="310.31" width="570.3" height="59.38"/><circle class="cls-5" cx="247.08" cy="336.37" r="12.67"/><line class="cls-5" x1="255.92" y1="345.45" x2="266.75" y2="356.29"/><line class="cls-5" x1="287.47" y1="310.31" x2="287.47" y2="369.68"/><line class="cls-5" x1="316.79" y1="340" x2="605.14" y2="340"/><line class="cls-1" x1="605.14" y1="395.47" x2="783.92" y2="395.47"/><line class="cls-1" x1="605.14" y1="424.53" x2="693.92" y2="424.53"/><line class="cls-1" x1="605.14" y1="453.6" x2="763.92" y2="453.6"/><line class="cls-1" x1="605.14" y1="482.66" x2="753.92" y2="482.66"/><line class="cls-1" x1="605.14" y1="511.72" x2="663.92" y2="511.72"/><line class="cls-1" x1="605.14" y1="540.78" x2="733.92" y2="540.78"/><line class="cls-1" x1="605.14" y1="569.85" x2="763.92" y2="569.85"/><line class="cls-1" x1="605.86" y1="599.47" x2="733.92" y2="601.08"/><path class="cls-1" d="M410.47,805.39s8.62,1.54,11.78-2.37-7-10.71-9.59-12.52c-2.84-2-12.17-10.18-12.17-10.18"/><circle class="cls-1" cx="355.77" cy="779.17" r="25.8"/><path class="cls-6" d="M365.93,755.46s18.91,7.08,30.56,20.14c8.64,9.69,15.78,24.94,18.9,32.17a9.55,9.55,0,0,1-4.31,12.28l-.18.09c-5.13,2.53-8.76.79-8.76.79s-4.6,7.44-13.15,4.83c0,0-8.54,6.92-15.26,2.61,0,0-20.33,6.9-22.58,2.13s5.92-10.4,12.78-11.87l-3.72-9.13s-16.91-5.71-22.41-11.82"/><path class="cls-5" d="M402.14,820.93s-4.6,7.44-13.15,4.83c0,0-8.54,6.92-15.26,2.61,0,0-20.33,6.9-22.58,2.13s5.92-10.4,12.78-11.87l-3.72-9.13s-19.72-6.16-26.42-16.81"/><path class="cls-5" d="M365.12,755.13s19.72,7.41,31.37,20.47c8.45,9.47,15.46,24.26,18.68,31.68A10.11,10.11,0,0,1,411.09,820l-.19.11c-3.85,2.2-8.76.79-8.76.79"/><path class="cls-1" d="M401.32,822.05s2.16-2.61,1-8.56a82.27,82.27,0,0,0-3.53-12"/><path class="cls-1" d="M389,825.76s2.78-2.17,2.26-7.13a105.66,105.66,0,0,0-2.91-13.35"/><path class="cls-1" d="M373.73,828.37s5.57-1.84,6-4.64-2.37-15.29-2.37-15.29"/><circle class="cls-3" cx="237.49" cy="707.83" r="30.25"/><circle class="cls-3" cx="302.34" cy="612.3" r="34.08"/><path class="cls-7" d="M212.29,691.1s49.42-81.74,62.35-98.66l57.14,35.92-70.87,97.46"/><line class="cls-5" x1="331.78" y1="628.36" x2="260.91" y2="725.82"/><path class="cls-5" d="M212.29,691.1s49.42-81.74,62.35-98.66"/><polyline class="cls-7" points="216.06 729.2 301.15 806.84 332.63 765.99 259.11 687.74"/><line class="cls-5" x1="332.63" y1="765.99" x2="259.11" y2="687.74"/><line class="cls-5" x1="216.06" y1="729.2" x2="301.15" y2="806.84"/><circle class="cls-7" cx="237.23" cy="707.6" r="16.84"/><rect class="cls-4" x="660.78" y="511.8" width="5.1" height="97.23" transform="translate(-204.3 596.41) rotate(-42.57)"/><polygon class="cls-4" points="696.19 596.16 698.1 594.41 700.69 601.06 694.28 597.91 696.19 596.16"/><circle class="cls-1" cx="672.69" cy="571.46" r="7.14"/><path class="cls-6" d="M667.81,566.13c.08-.14,4.58-2.7,8.09-4.68a5.86,5.86,0,0,1,7.25,1.17h0a5.89,5.89,0,0,1-.13,8l-6.7,6.93"/><path class="cls-1" d="M683.15,562.62a5.89,5.89,0,0,1-.13,8l-6.7,6.93"/><path class="cls-1" d="M667.81,566.13c.08-.14,4.58-2.7,8.09-4.68a5.86,5.86,0,0,1,7.25,1.17h0"/><circle class="cls-1" cx="638.43" cy="608.53" r="26.4"/><path class="cls-6" d="M620.47,589.34s21.69-18.89,26.09-20.83a80.92,80.92,0,0,1,13-4.28l5.84,3.41,3.48-2,9.71,9.77a7.58,7.58,0,0,1,2.57,4.19c.23,1.09-.9,4.13-.9,4.13a6,6,0,0,1,2.47,4.52,15.09,15.09,0,0,1-1.07,4s3.14,3.29-1.11,11.61c-3.23,6.32-25.85,25.45-25.85,25.45"/><path class="cls-5" d="M678.6,575.36a7.58,7.58,0,0,1,2.57,4.19c.23,1.09-.9,4.13-.9,4.13a6,6,0,0,1,2.47,4.52,15.09,15.09,0,0,1-1.07,4s3.14,3.29-1.11,11.61c-3.23,6.32-25.85,25.45-25.85,25.45"/><path class="cls-5" d="M620.47,589.34s21.69-18.89,26.09-20.83c6.29-2.77,14.82-6.35,14.82-6.35l4.74,5.06"/><polyline class="cls-1" points="647.59 574.35 654.96 573.81 668.89 565.59"/><line class="cls-1" x1="675.64" y1="578.72" x2="679.53" y2="574.29"/><path class="cls-1" d="M678.41,586.16a23.68,23.68,0,0,0,2.18-3.52"/><path class="cls-1" d="M679.76,595.26a34.41,34.41,0,0,0,2.63-4.55"/><path class="cls-2" d="M596.05,612.36A381.62,381.62,0,0,1,627.7,635.6c16.94,13.82,23.71,21.22,12.63,21.11S597.1,629.44,596.05,612.36Z"/><circle class="cls-3" cx="524.52" cy="700.92" r="32.92"/><path class="cls-6" d="M621.73,588.24,506.24,672.82l38.45,53.36s109.8-97,111.27-98Z"/><path class="cls-5" d="M544.69,726.18s109.77-97,111.27-98"/><path class="cls-7" d="M593.17,609.86l-87,63.69,38.45,53.36s99.47-70,101-71.06c0,0-11.73-.89-30.35-17.46C596.88,622.05,593.17,609.86,593.17,609.86Z"/><path class="cls-5" d="M645.37,655.33s-16.54-1.78-33.71-20.66c-16.54-18.19-17-25.87-17-25.87"/><path class="cls-5" d="M544.66,726.91s99.47-70.53,101-71.57"/><line class="cls-5" x1="621.73" y1="588.24" x2="507.43" y2="672.77"/><circle class="cls-4" cx="343.38" cy="1338.61" r="51.71"/><path class="cls-2" d="M396,1341.34,427.09,1360c8.55,4.58,16.38,13.33,18.12,22.87,1.3,7.16,1.65,22.11,1.65,22.11l-165.42.67s3.57-29.4,9.36-68.5"/><line class="cls-8" x1="281.12" y1="1389.95" x2="447.18" y2="1389.95"/><circle class="cls-4" cx="345.62" cy="1076.91" r="52.88"/><polygon class="cls-9" points="408.6 1348.89 398.5 1076.91 292.75 1076.91 285.25 1376.29 408.6 1348.89"/><path class="cls-4" d="M292.74,1076.91l-7.49,299.38s30.68,9.24,79.56-2.12c32.47-7.55,49.41-21.92,49.41-21.92L398.5,1076.91"/><circle class="cls-4" cx="345.3" cy="808.43" r="52.88"/><polyline class="cls-9" points="292.42 808.43 292.75 1076.91 398.5 1076.91 398.18 808.43 292.42 808.43"/><polyline class="cls-5" points="398.5 1076.91 398.18 808.43 292.42 808.43"/><line class="cls-5" x1="292.42" y1="808.43" x2="292.74" y2="1076.91"/><path class="cls-1" d="M377.34,515.65c17.77,9.24,43.62,3.29,50.68-10.94s-9.11-37-10-40.44c-5.21-20.16-9.23-26.71-15.79-31.4-16-11.39-54.25,1.07-59.07,23-4.39,20,14.67,46.55,14.67,46.55"/><path class="cls-10" d="M417.3,459.82c.46,1.54-1.64,1.94-4.41,2.77s-4.67,1.93-5.13.4,1.41-3.46,4.18-4.29S416.84,458.29,417.3,459.82Z"/><circle class="cls-10" cx="415.73" cy="466.55" r="1.6"/><path class="cls-10" d="M416.51,515s-9.1-4.28-15.14-11.53L398.42,520S409.1,519.19,416.51,515Z"/><circle class="cls-1" cx="378.43" cy="544.68" r="24.87"/><polyline class="cls-6" points="403.27 547.97 401.35 497.27 354.14 496.02 353.52 542.22"/><line class="cls-5" x1="354.14" y1="496.02" x2="353.52" y2="542.22"/><line class="cls-5" x1="403.27" y1="547.97" x2="401.76" y2="505.51"/><circle class="cls-3" cx="381.9" cy="736.49" r="60.48"/><circle class="cls-3" cx="445.03" cy="600.18" r="34.59"/><path class="cls-7" d="M473.58,579.79s-6.92-10.61-28.28-20.73c-28-13.28-78.57-12.62-113.13-1.88-31.24,9.71-52.59,29.3-52.59,32.64S321.5,738.91,321.5,738.91L442.2,740l8.26-94.28Z"/><path class="cls-5" d="M473.58,580.13s-6.92-10.61-28.28-20.73c-28-13.28-77-14.12-111.31-2.51-31.1,10.54-51.44,27.23-56.34,32.26"/><line class="cls-5" x1="442.2" y1="740.37" x2="450.22" y2="648.93"/><path class="cls-1" d="M293.43,640.89c12.21,43.22,28.07,98.36,28.07,98.36"/><polygon class="cls-7" points="473.58 579.79 515.3 634.73 548.26 677.37 495.35 717.27 418.67 621.45 473.58 579.79"/><circle class="cls-7" cx="522.83" cy="698.3" r="18.97"/><polyline class="cls-4" points="473.58 579.79 515.3 634.73 548.52 677.7"/><line class="cls-4" x1="497.44" y1="719.12" x2="418.67" y2="621.44"/><circle class="cls-7" cx="445.03" cy="600.18" r="24.09"/><circle class="cls-4" cx="599.1" cy="1338.61" r="51.71"/><path class="cls-2" d="M546.53,1336.7c-6.08,39.06-9.88,68.43-9.88,68.43l165.43.58s-.24-15-1.49-22.12c-1.67-9.56-9.43-18.36-18-23l-30.95-18.84"/><circle class="cls-4" cx="494.08" cy="1065.94" r="52.88"/><polygon class="cls-9" points="655.79 1338.61 544.01 1048.54 444.14 1083.34 538.83 1372.13 655.79 1338.61"/><path class="cls-4" d="M544,1048.54l57.14,144.72,57.39,145.35s-15.54,18-56.77,32.59c-37.14,13.15-61.84,9.9-61.84,9.9l-95.79-297.76"/><line class="cls-4" x1="522.13" y1="1056.17" x2="630" y2="1358.92"/><circle class="cls-4" cx="405.43" cy="812.52" r="52.88"/><polyline class="cls-9" points="355.49 829.92 444.14 1083.34 472.45 1073.48 544.01 1048.54 455.36 795.12 355.49 829.92"/><polyline class="cls-4" points="544.01 1048.54 455.36 795.12 355.49 829.92"/><line class="cls-4" x1="355.49" y1="829.92" x2="444.14" y2="1083.34"/><line class="cls-4" x1="522.13" y1="1056.17" x2="436.87" y2="804.97"/><line class="cls-8" x1="536.65" y1="1389.95" x2="702.71" y2="1389.95"/><path class="cls-4" d="M463.27,817.72,442.2,740s-24.77,8.83-66.59,8.83-54.11-9.16-54.11-9.16S292.58,770.8,292,805.26c-.32,18.89.43,37.46.43,37.46"/><line class="cls-4" x1="339.96" y1="823.93" x2="356.53" y2="833.71"/><path class="cls-10" d="M392.35,472.57s.86,1.66,3.16-.07c6.83-5.15-3.19-16.6,2.91-21.7.73-.61,4.85,6,4.85,6l19.22-5.6s-7.66-35.76-49.72-32c-16.28,1.45-30.86,6.15-39.37,19.88-13.52,21.79-11.77,57.46-15.81,87.65-5.92,44.27-25.17,70-25.17,70s9.74,21.52,50.09,21.56c23.42,0,34.07-8.63,34.07-8.63s15.16-21.93,13.64-84.06A456.45,456.45,0,0,1,392.35,472.57Z"/><path class="cls-1" d="M395.15,471.74s-8.84-8.11-15.76-4C372,472,372.64,478.85,378,486.32c5.64,7.91,15.68,7.87,17.59,6.91,3.66-1.84,5-5.5,3.89-8.52"/><path class="cls-1" d="M379.72,477.09s2.14-6,10.5.3c0,0-4.77,0-6.2,2.72"/><circle class="cls-1" cx="966.34" cy="511.99" r="6.71"/><path class="cls-1" d="M971.35,507.29s-9.77-10.52-13.9-11.31-6.53,4.82-2.23,12a89,89,0,0,0,6.09,9.16"/><circle class="cls-1" cx="980.28" cy="530.2" r="9.07"/><polyline class="cls-6" points="986.91 524.16 971.35 507.29 960.74 516.48 972.67 534.83"/><line class="cls-5" x1="960.73" y1="516.48" x2="972.67" y2="534.83"/><line class="cls-5" x1="986.91" y1="524.17" x2="971.35" y2="507.29"/><ellipse class="cls-1" cx="1002.66" cy="586.48" rx="36.55" ry="36.08" transform="translate(387.47 1571.79) rotate(-88.35)"/><path class="cls-6" d="M1028.35,560.9l-42-37.23L972,533.89s-9.34,1.21-11.63,10c0,0-7.37-.7-8,8.31,0,0-5.28,2.14-5.49,10s7.55,26,10.22,30c5.75,8.6,10.68.84,10.68.84l7.48,17.33"/><path class="cls-5" d="M972,533.89s-9.34,1.21-11.63,10c0,0-7.37-.7-8,8.31,0,0-5.28,2.14-5.49,10s7.55,26,10.22,30c5.75,8.6,10.68.84,10.68.84s-.54,3.55,2.22,9.16a34.24,34.24,0,0,0,5.26,8.17"/><line class="cls-5" x1="1028.35" y1="560.9" x2="986.71" y2="523.82"/><path class="cls-1" d="M967.86,593.06s-14.11-19.63-15.39-42.74"/><path class="cls-1" d="M960.74,543.59s5.67,27.26,14.19,38.39c0,0,3.62,12.16-6.58,11.41"/><path class="cls-1" d="M998,544.71s-18.78-8.34-23.92-11.19-8.82,3.23-6,8.53c2.42,4.55,16.9,14.84,16.9,14.84a43,43,0,0,0,7.16,22.91"/><path class="cls-1" d="M975.19,582.32s7.15,6.61,9.75-2.53c1.38-4.86-5.63-17.57-7.35-27.73"/><circle class="cls-2" cx="1179.09" cy="1340.49" r="50.49"/><path class="cls-4" d="M1239.94,1405.57l-161.54-.37s.27-14,1.5-21c1.64-9.34,9.24-17.92,17.57-22.44l31.79-17.24-.1-.54c13.2.43,75.42-5.57,100.53-9.43C1235.55,1372.73,1239.94,1405.57,1239.94,1405.57Z"/><line class="cls-5" x1="1081.07" y1="1390.4" x2="1239.39" y2="1389.52"/><path class="cls-5" d="M1123.56,1356.32s7.64,11.66,9.83,34"/><circle class="cls-4" cx="1197.12" cy="1054.09" r="55.2"/><path class="cls-10" d="M1124,1347.4l18-296.57,110.21,6.52-18.48,304.11s-11.42,13.18-66.14-9.15C1139.69,1340.92,1124,1347.4,1124,1347.4Z"/><line class="cls-4" x1="1142.02" y1="1050.83" x2="1124" y2="1347.4"/><line class="cls-4" x1="1233.75" y1="1361.46" x2="1252.23" y2="1057.35"/><path class="cls-2" d="M1214.46,1341.28s-18.94-4-34.64-12.22c-25.35-13.25-41.83-16.62-54-11.93-23.83,9.18-17.65,38.84-17.65,38.84s10.68-8.55,37.45-6.68c28.25,2,46.69,13.66,64.28,16a45,45,0,0,0,19.66-1.54"/><path class="cls-8" d="M1214.46,1341.28s-18.94-4-34.64-12.22c-25.35-13.25-41.83-16.62-54-11.93"/><circle class="cls-2" cx="1214.03" cy="774.32" r="55.2"/><polyline class="cls-10" points="1251.63 1065.83 1269.14 777.59 1158.92 771.06 1141.42 1059.3"/><line class="cls-4" x1="1158.93" y1="771.06" x2="1141.42" y2="1059.3"/><line class="cls-4" x1="1251.63" y1="1065.83" x2="1269.14" y2="777.59"/><circle class="cls-2" cx="1312.55" cy="1340.24" r="50.49"/><path class="cls-4" d="M1373.3,1405.41H1211.76s.29-14.6,1.53-21.6c1.66-9.32,9.27-17.9,17.61-22.41l31.81-17.18-.1-.54c13.2.44,75.43-5.46,100.55-9.28C1369,1372.56,1373.3,1405.41,1373.3,1405.41Z"/><path class="cls-5" d="M1211.76,1404.79s.29-14,1.53-21c1.66-9.32,9.27-17.9,17.61-22.41"/><line class="cls-5" x1="1212.53" y1="1390" x2="1372.78" y2="1389.35"/><path class="cls-5" d="M1257,1356s7.62,11.67,9.77,34"/><circle class="cls-4" cx="1300.11" cy="1053.77" r="55.2"/><path class="cls-10" d="M1255.6,1348.36l-10.66-292.49,110.33-4.19,11.09,304.46s-12.06,11.94-68.69-5C1268.78,1342.53,1255.6,1348.36,1255.6,1348.36Z"/><line class="cls-4" x1="1244.94" y1="1055.87" x2="1255.46" y2="1344.45"/><line class="cls-4" x1="1366.36" y1="1356.14" x2="1355.27" y2="1051.68"/><circle class="cls-2" cx="1289.82" cy="773.68" r="55.2"/><polyline class="cls-10" points="1355.49 1060.17 1344.98 771.59 1234.66 775.78 1245.17 1064.36"/><line class="cls-4" x1="1245.17" y1="1064.36" x2="1234.66" y2="775.78"/><line class="cls-8" x1="1245.17" y1="1064.36" x2="1234.66" y2="775.78"/><line class="cls-4" x1="1355.49" y1="1060.17" x2="1344.98" y2="771.59"/><path class="cls-2" d="M1350,1340.86s-18.4-1.84-34-10.17c-21-11.2-43.19-15.38-55.34-10.7-23.83,9.19-16.9,35.56-16.9,35.56s8.15-7.55,34.92-5.68c28.25,2,40.23,10.8,57.89,12.58,25.29,2.54,29.84-6.31,29.84-6.31"/><path class="cls-8" d="M1350,1340.86s-18.4-1.84-34-10.17c-21-11.2-43.19-15.38-55.34-10.7"/><circle class="cls-1" cx="1081.25" cy="669.1" r="38.97"/><path class="cls-6" d="M1028.6,561.36l82.1,82.24-55.35,55.21s-78.28-87.17-80-88.42"/><path class="cls-5" d="M1055.35,698.81s-78.25-87.19-80-88.42"/><line class="cls-5" x1="1028.35" y1="560.9" x2="1113.38" y2="646.56"/><circle class="cls-4" cx="1198.54" cy="564.81" r="44.21"/><polygon class="cls-6" points="1220.12 595.24 1109.39 695.9 1054.24 640.46 1165.09 535.25 1220.12 595.24"/><line class="cls-4" x1="1060.65" y1="634.31" x2="1165.2" y2="535.13"/><line class="cls-4" x1="1219.89" y1="595.48" x2="1108.89" y2="696.35"/><path class="cls-2" d="M1118.4,583c9.85-10.56,25.49-27,31.28-32.37L1208.33,606l-40.65,39.11C1150.68,635.55,1125.93,603.23,1118.4,583Z"/><path class="cls-4" d="M1172.25,529.61c-19.46,14.27-56.6,49.73-56.6,49.73,32.14,48.57,73.82,61,73.82,61L1232,593.79"/><path class="cls-5" d="M1127,569.3s1.92,8.72,17.5,20.86"/><path class="cls-2" d="M1339.86,686.28s3,11.55,4.33,39c.59,12.38.79,43.43.79,43.43L1159,770a199.45,199.45,0,0,1,4.36-44.72c5.33-24.35,12.43-12.22,12.43-12.22Z"/><circle class="cls-1" cx="1236.37" cy="520.57" r="24.54"/><polyline class="cls-1" points="1260.11 513.75 1248.91 459.46 1203.38 469.06 1212.83 528.18"/><path class="cls-10" d="M1218,472.31s10.56,23.82-7.7,40.67l-7.08-41.12Z"/><path class="cls-6" d="M1251.25,453.94c3-8.82,6.15-22.32,2.06-32.4-7.24-17.83-41.42-22.84-53.25-10.91-4.87,4.92-2.33,3.42-6,20.91-2.53,12.21-20.46,37.58-4.94,52.24,17,16.08,38.74,8.4,50.06-4.49C1247,470.49,1248.74,461.32,1251.25,453.94Z"/><path class="cls-1" d="M1251.25,453.94c3-8.82,6.15-22.32,2.06-32.4-7.24-17.83-41.42-22.84-53.25-10.91-4.87,4.92-2.33,3.42-6,20.91-2.53,12.21-20.46,37.58-4.94,52.24,17,16.08,38.74,8.4,50.06-4.49"/><path class="cls-2" d="M1211,442.91c-.29,1.4,2.93,2,6.76,2.81s6.81,1.46,7.1.06-2.58-3.17-6.41-4S1211.33,441.51,1211,442.91Z"/><path class="cls-2" d="M1188.51,438.69c-.13,1.62,2,1.57,4.81,1.82s4.9.93,5-.68-2-3.12-4.89-3.36S1188.65,437.08,1188.51,438.69Z"/><path class="cls-1" d="M1206.44,470.6a8,8,0,0,1-9.55-1.42"/><path class="cls-1" d="M1202.4,447.44s-.5,3.78-2.16,5.16-3.52,1.06-4.54,2.65c-1.22,1.91.66,5.06,2.92,5.75"/><circle class="cls-10" cx="1211.28" cy="452.75" r="1.37"/><circle class="cls-10" cx="1192.42" cy="448.76" r="1.37"/><path class="cls-10" d="M1238.89,425.74s-27.2,19.28-51.75.91a22.55,22.55,0,0,1-9-20.68c1.12-9.23,8.75-16.79,19.19-18.41a50.41,50.41,0,0,1,31,5.09s15.86-4.26,32.22,10.4,2.14,38.55,2.14,38.55-9.92,12.25-15.11,8.64-4.35-12.65-4.35-12.65-4.82-.55-8-2.71a13,13,0,0,1-4.43-5Z"/><path class="cls-8" d="M1236.15,397.81a9.61,9.61,0,0,0-3.4-3.17,13.87,13.87,0,0,0-4.42-2"/><path class="cls-1" d="M1245.33,447.45s5.5-10.67,12.3-9.58c7.25,1.17,8.87,6.8,6.94,14.44-2,8.08-10.08,11.18-11.91,11-3.49-.33-5.71-2.83-5.76-5.59"/><path class="cls-1" d="M1260.29,445.48s-3.59-4.17-8.29,3.52c0,0,3.81-1.48,5.8.23"/><circle class="cls-4" cx="1314.56" cy="557.14" r="41.52"/><circle class="cls-2" cx="1251.59" cy="697.83" r="89.02"/><path class="cls-9" d="M1331.7,519.33c-33-11.23-69.18-5.38-69.18-5.38s-33.85,1.34-52.37,3.33c-7.87.85-17.3,2-22.67,6.17-4.51,3.55-13.27,19.8-18,39.53-3.23,13.49-2.06,19.16-2.72,33.81-.61,13.38-1.38,41.76-3.11,62.45-2.37,28.28-3.36,73.3-3.36,73.3s38.82,16.35,105.26,16.35c67.59,0,82.37-4.94,82.37-4.94s-12.33-108.63-19.14-165.25"/><path class="cls-4" d="M1160.3,732.54s39.39,17.65,105.74,21.05c57.77,3,82.88-1.07,82.88-1.07s-13.32-117.2-20.13-173.82"/><path class="cls-5" d="M1330.24,518.7c-25.57-7.83-49.78-6.89-67.24-5.47"/><path class="cls-3" d="M1210.77,516.66a170.6,170.6,0,0,0-23.29,5.34"/><path class="cls-1" d="M1210.77,516.66c-2.6.4-2.41.43-5.43,1-3,3.8.05,25.26,17.66,27.87,27.64,4.1,43-21.78,47.7-31.94-2.79-.31-8.54-.28-10.7-.37"/><path class="cls-3" d="M1167,585.72c-.61,13.39-6.44,137.31-6.72,145.37"/><path class="cls-2" d="M1396.1,608.56l7.94-1a5.2,5.2,0,0,1,1.61,5.36c-3.64,12.26-32.11,22.84-32.11,22.84s-37.44,10.78-47.77,10.72c-8-.05-12.52-5.75-7.81-10.42s53.1-25.95,78.14-27.46"/><circle class="cls-1" cx="1398.49" cy="684.66" r="39.01"/><polygon class="cls-6" points="1348.1 532.49 1428.41 659.76 1364.26 703.21 1296.23 598.57 1348.1 532.49"/><line class="cls-4" x1="1364.4" y1="703.88" x2="1290.58" y2="589.97"/><line class="cls-4" x1="1384.23" y1="589.75" x2="1428.41" y2="659.76"/><circle class="cls-9" cx="1315.84" cy="556.61" r="25.61"/><path class="cls-2" d="M1317.27,632.83l-19.92-37.53,55.41-51.6c0-2.09,30.77,40.36,52.28,79C1367.77,603.31,1324.09,633.37,1317.27,632.83Z"/><path class="cls-4" d="M1347.06,531.31l54.59,73,2.39,3.2s-52.5-8.31-87.72,34.06l-32-57"/><path class="cls-5" d="M1391.71,591s-37.36-7.54-65.52,19.81"/><polygon class="cls-1" points="1149.54 764.73 1257.19 764.86 1187.92 622.05 1080.28 621.92 1149.54 764.73"/><circle class="cls-1" cx="1247.79" cy="706.21" r="34.46"/><path class="cls-1" d="M1242.63,672.66s-50-15.91-70.39-3c-19.15,12.12-22.6,20.11-18.21,25.37,0,0-6.6,10.35,2.86,11.53,0,0-2.57,2.92-2.61,5.6a5.51,5.51,0,0,0,7.5,5.05,138.9,138.9,0,0,1,30-5.26s-16.71,9.2-22.59,13.22c-6.26,4.28-2,12.8,7.7,8.15,9-4.33,23.32-6.83,23.32-6.83s29.42,20.07,54.59,13.32"/><path class="cls-1" d="M1190.08,712.59a28,28,0,0,1,11.48-1.4"/><path class="cls-1" d="M1156.89,706.54s23.42-15.26,42.13-10.5"/><path class="cls-1" d="M1152.72,696.11s14.88-13.63,24.63-15.67,21.51.22,21.51.22"/><path class="cls-6" d="M1245.16,672.49,1394.27,646l12.61,76.75s-157.92,17.75-160,18.41"/><path class="cls-5" d="M1406.88,722.74s-157.92,17.71-160,18.41"/><line class="cls-5" x1="1241.9" y1="672.96" x2="1366.31" y2="650.42"/><circle class="cls-6" cx="1398.49" cy="684.66" r="22.87"/><line class="cls-2" x1="89.33" y1="1405.54" x2="1510.67" y2="1405.54"/></svg>