<svg id="Layer_1" data-name="Layer 1" xmlns="http://www.w3.org/2000/svg" xmlns:xlink="http://www.w3.org/1999/xlink" viewBox="0 0 1600 1600"><defs><style>.cls-1,.cls-2{fill:#B9D831;}.cls-1,.cls-13,.cls-5,.cls-6,.cls-8{stroke:#47484C;}.cls-1,.cls-11,.cls-13,.cls-15,.cls-5,.cls-6,.cls-8{stroke-linecap:round;stroke-linejoin:round;}.cls-1,.cls-11,.cls-15,.cls-5,.cls-6{stroke-width:2px;}.cls-3{clip-path:url(#clip-path);}.cls-13,.cls-4,.cls-6,.cls-8{fill:#fff;}.cls-11,.cls-5,.cls-9{fill:none;}.cls-15,.cls-7{fill:#47484C;}.cls-8{stroke-width:2.26px;}.cls-10{clip-path:url(#clip-path-2);}.cls-11{stroke:#B9D831;}.cls-12{clip-path:url(#clip-path-3);}.cls-13{stroke-width:1.85px;}.cls-14{fill:#47484C;}.cls-15{stroke:#fff;}</style><clipPath id="clip-path"><rect class="cls-1" x="1087.26" y="256.78" width="371.56" height="371.56" transform="translate(2546.07 885.11) rotate(180)"/></clipPath><clipPath id="clip-path-2"><rect class="cls-1" x="141.19" y="375.26" width="371.56" height="371.56"/></clipPath><clipPath id="clip-path-3"><rect class="cls-1" x="602.67" y="123.22" width="371.56" height="371.56" transform="translate(1576.89 618) rotate(180)"/></clipPath></defs><title>Online Business Meeting</title><rect class="cls-2" x="1087.26" y="256.78" width="371.56" height="371.56" transform="translate(2546.07 885.11) rotate(180)"/><g class="cls-3"><rect class="cls-1" x="1087.26" y="256.78" width="371.56" height="371.56" transform="translate(2546.07 885.11) rotate(180)"/><path class="cls-4" d="M1215.64,555.13s-13.76,33.74-9.31,72.71c1.77,15.49,20.19,53.59,20.19,53.59l16.15,70.15s25.28,9,43.49,11.41c67.18,8.9,123.45-12.4,123.45-12.4L1388,677.54l12.57-102.88Z"/><path class="cls-4" d="M1402.16,501.3s29.16,48.6,16.66,84.71-193.68,85.5-215.89,57.73-23-66.06-25.74-78.56-7-51.39,20.83-62.5C1216.79,495.17,1363.28,463.8,1402.16,501.3Z"/><path class="cls-5" d="M1206.48,550.11S1197,629.52,1216,690c5.39,17.17,26,61.62,26,61.62"/><polyline class="cls-5" points="1408.87 750.59 1387.21 677.54 1399.78 574.66"/><path class="cls-6" d="M1174.82,524a62,62,0,0,1,28.81-32.16c37.12-19.49,130.14-18.22,165.21-8.2s53.78,27.84,64.58,47.48"/><path class="cls-5" d="M1405,519.33s-12.77-17.68-33.39-23.57"/><path class="cls-7" d="M1469,651.16l-16,21.36s1.22-33.14,11.53-51.55Z"/><path class="cls-7" d="M1525,701.86s-17.92-.86-22.83-21-9.82-52.54-9.82-52.54.49,70.71,17.18,95.26Z"/><path class="cls-6" d="M1376.93,586.55s8.88,81.78,49,152.75c10.9,19.31,43.33,26.52,62,10.8C1505,735.74,1589.3,605.45,1589.3,605.45l-41.51-55.68-79,100.17S1458,535,1407.89,501.65"/><path class="cls-6" d="M1546.32,551.73c24.73-12.77,83.4-32.32,92.82-29,8.58,3.06,2.88,10.1,2.88,10.1s9.88-3.06,12.86,3.9c2,4.6-3.39,10.37-3.39,10.37s6.49,4.67,2,11.08c-3.15,4.51-13.77,9.19-13.77,9.19s9.51,5.54,2.35,11.9-59.91,34.3-59.91,34.3"/><path class="cls-6" d="M1545.83,552.72c7.86-13.26,40.86-45.62,49.9-42.7,8.74,2.81-8.35,27.76-8.35,27.76a46.76,46.76,0,0,1-12.21,30.48"/><path class="cls-6" d="M1642,532.86s-29.63,9.18-46.93,17.82"/><path class="cls-5" d="M1422.62,513.44s-34.14-5.11-43,43.78"/><circle class="cls-6" cx="1151.91" cy="520.73" r="35.57"/><path class="cls-6" d="M1186.74,516.62c-7.3-26.86-32.57-83.31-41.41-88-8-4.26-9.38,4.7-9.38,4.7s-4.42-9.35-11.57-6.84c-4.72,1.66-5.35,9.51-5.35,9.51s-7.82-1.62-9.52,6c-1.19,5.37,2.54,16.36,2.54,16.36s-10.51-3.26-10.35,6.31S1116.92,532,1116.92,532"/><path class="cls-6" d="M1186.34,517.65c4.46-14.76,6-60.95-2.27-65.64-8-4.54-14.81,24.92-14.81,24.92a46.78,46.78,0,0,0-14.2,29.61"/><path class="cls-6" d="M1136,433.34s13.26,28,18.59,46.63"/><path class="cls-6" d="M1119,436s14.68,29.21,20.24,47.32"/><path class="cls-6" d="M1112.05,458.39s10.18,22.1,12.84,31.4"/><path class="cls-6" d="M1186.15,512.26S1213.27,645,1219.27,675.8l-79.63,9.67L1114.5,521.19"/><circle class="cls-8" cx="1175.46" cy="686.69" r="45.39"/><path class="cls-6" d="M1111.07,561.07c-5.63-3.26,7.86-10.89,7.86-10.89l1.92,17.71"/><path class="cls-6" d="M1194.33,550.11c-7.8,8.5-45.63,16.54-61.92,16.59-16,0-22.23-5.92-22.23-5.92l19.22,128"/><path class="cls-6" d="M1115.52,590.11s37.63,9.78,83-13.33"/><path class="cls-6" d="M1262.18,477.81l4.19-53.39s44.23-38.37,56.1-39.07,15.71,15.36,15.71,15.36l2.82,75.92s-8.3,9.48-17.78,13.63"/><circle class="cls-9" cx="1301.74" cy="467.71" r="38.55"/><path class="cls-6" d="M1315.22,420c-19.32,17.69-50.72,21.63-64.45,6s-4.28-52.53-4.32-57.19c-.23-27.24,2.63-36.87,9.34-45,16.29-19.78,68.89-17,82.39,9.08,12.31,23.77-2.79,63.78-2.79,63.78"/><path class="cls-7" d="M1276.44,364.37c-.18,2.42,5.16,2.74,11.51,3.21s11.32.93,11.5-1.49-4.82-4.77-11.18-5.24S1276.62,362,1276.44,364.37Z"/><path class="cls-7" d="M1250.35,361.92c-.08,2.48,3.2,2.23,7.64,2.36s7.7,1,7.78-1.45-3.47-4.59-7.91-4.72S1250.42,359.45,1250.35,361.92Z"/><path class="cls-6" d="M1270.08,366.37s-.23,5.82-2.56,8.14-4.65.94-6.52,4.66,1.72,7.59,5.25,8.33"/><circle class="cls-7" cx="1285.99" cy="373.92" r="2.09"/><circle class="cls-7" cx="1256.53" cy="369.42" r="2.09"/><path class="cls-7" d="M1347.5,368.34S1332,355.08,1322.13,376c0,0-5.24,1.31-8.18-4.58-1.87-3.72-3.85-20.74-10.89-24.39-7.69-4-16.58-4-28.36-11.31a72.1,72.1,0,0,1-16.44,7.33c-3,.81-12.67,2.89-12.67,2.89s-15.45-36.22,32.68-37.7c0,0,40.4-12.6,59.9,8.35C1347,326.06,1350,343.87,1347.5,368.34Z"/><path class="cls-6" d="M1321.26,378.48s5.58-14.66,16.06-14c11.17.74,14.43,9.08,12.56,21-2,12.55-13.72,18.38-16.52,18.38-5.35,0-9.08-3.49-9.54-7.68"/><path class="cls-6" d="M1342.44,375.69s-6.06-5.82-12.11,6.52c0,0,5.59-2.8,8.85-.47"/><path class="cls-7" d="M1242,399.89l8.44-2.22a12.63,12.63,0,0,1,13.48-8.45c10.67.89,17.19,10.22,17.63,14.22,0,0,12.45,7.11,20,1.78S1312,381.81,1312,381.81l5.19,4.74S1314,411.67,1306,425.22c-4.45,7.56-16,25.78-42.67,23.56S1239.81,415,1242,399.89Z"/><path class="cls-4" d="M1254.48,398.7s5.63-1.18,8.3-4.15a81,81,0,0,0,12.15,7.41s-2.38,12.15-13.93,10.67C1250.65,411.3,1254.48,398.7,1254.48,398.7Z"/><path class="cls-6" d="M1257.74,402.26s6.22,3.55,8.89.59"/><path class="cls-6" d="M1253.89,488.48l8.89-26.07a40.6,40.6,0,0,0,18.37,16l5.92,26.66,8.3-26.07c36.44-11,43-19,45.33-22.22l11,24"/><path class="cls-6" d="M1299.52,483.15s8.89,16.59,10.07,25.48c0,0,30.82-16.59,42.08-29"/><path class="cls-6" d="M1277,483.15l-8.3,19.55s-7.11-4.15-10.66-8.29"/><path class="cls-5" d="M1287.07,505.07s-17.77,54.52-11.85,95.41"/></g><rect class="cls-5" x="1087.26" y="256.78" width="371.56" height="371.56" transform="translate(2546.07 885.11) rotate(180)"/><rect class="cls-2" x="141.19" y="375.26" width="371.56" height="371.56"/><g class="cls-10"><rect class="cls-1" x="141.19" y="375.26" width="371.56" height="371.56"/><path class="cls-7" d="M304.08,424.35s-5.33-14.56-25.31-12.34c-55.55,6.17-24.51,96.82-66,119.12-33.33,17.9-29.44,51.3-21,75.3,15.44,43.82,105,43.45,94.44-51.84-9.26-83.94-17.28-114.81,1.85-116S304.08,424.35,304.08,424.35Z"/><path class="cls-5" d="M213.3,514.82s21.33-11.56,29.33-56.89"/><path class="cls-11" d="M259.64,481.6s.05-29.69,11.57-43.51,33.56-15,33.56-15"/><path class="cls-4" d="M384.36,673.62s13.76,33.73,9.31,72.71c-1.77,15.48-20.19,53.58-20.19,53.58l-16.15,70.15s-25.28,9-43.49,11.41c-67.18,8.91-123.45-12.39-123.45-12.39L212.05,796,199.48,693.15Z"/><path class="cls-4" d="M197.84,619.78s-29.16,48.61-16.66,84.71,168,59.72,190.25,31.94,48.61-40.27,51.38-52.77,6.95-51.38-20.83-62.49C383.21,613.66,236.72,582.28,197.84,619.78Z"/><path class="cls-5" d="M385.1,673.62s13.76,33.73,9.3,72.71c-1.77,15.48-20.18,53.58-20.18,53.58l-16.15,70.15"/><polyline class="cls-5" points="191.13 869.08 212.79 796.02 200.22 693.15"/><path class="cls-6" d="M425.18,642.48a62,62,0,0,0-28.81-32.16c-37.12-19.49-130.14-18.23-165.21-8.21S177.38,630,166.58,649.6"/><path class="cls-5" d="M195.05,637.81s12.77-17.67,33.39-23.57"/><path class="cls-5" d="M390.48,690.84s6.87-11.78,7.85-22.59"/><path class="cls-7" d="M131,769.65l16,21.36s-1.22-33.15-11.53-51.56Z"/><path class="cls-7" d="M75,820.35s17.92-.86,22.83-21,9.82-52.53,9.82-52.53-.49,70.7-17.18,95.25Z"/><path class="cls-5" d="M234.41,602.19s12,38.88,70.36,44.44,60.8-36.73,48.76-47.84"/><path class="cls-6" d="M223.07,705s-8.88,81.78-49,152.74c-10.9,19.31-43.33,26.52-62,10.81C95.05,854.22,10.7,723.93,10.7,723.93l41.51-55.68,79,100.17s10.8-114.9,60.89-148.28"/><path class="cls-6" d="M53.68,670.22c-24.73-12.78-83.4-32.32-92.82-29-8.58,3-2.88,10.09-2.88,10.09s-9.88-3.06-12.86,3.9c-2,4.6,3.39,10.37,3.39,10.37s-6.49,4.67-2,11.08c3.15,4.51,13.77,9.19,13.77,9.19s-9.51,5.54-2.35,11.9,59.91,34.31,59.91,34.31"/><path class="cls-6" d="M54.17,671.2c-7.86-13.26-40.86-45.62-49.9-42.7-8.74,2.82,8.35,27.77,8.35,27.77a46.76,46.76,0,0,0,12.21,30.48"/><path class="cls-6" d="M-42,651.34s29.63,9.18,46.93,17.82"/><path class="cls-5" d="M177.38,631.92s34.14-5.1,43,43.78"/><circle class="cls-6" cx="448.72" cy="638.35" r="35.57"/><path class="cls-6" d="M413.89,634.24c7.3-26.86,32.57-83.31,41.41-88,8.05-4.26,9.38,4.7,9.38,4.7s4.42-9.35,11.57-6.84c4.72,1.66,5.35,9.51,5.35,9.51s7.82-1.62,9.52,6c1.19,5.37-2.54,16.36-2.54,16.36s10.51-3.26,10.35,6.31-15.22,67.33-15.22,67.33"/><path class="cls-6" d="M414.29,635.26c-4.46-14.75-6-60.94,2.27-65.63,8-4.54,14.81,24.92,14.81,24.92a46.78,46.78,0,0,1,14.2,29.61"/><path class="cls-6" d="M464.68,551s-13.26,28-18.59,46.63"/><path class="cls-6" d="M481.6,553.63S466.92,582.84,461.36,601"/><path class="cls-6" d="M488.58,576s-10.18,22.1-12.84,31.4"/><path class="cls-6" d="M414.48,629.88S387.64,757.15,381.65,788L461,803.09l25.14-164.28"/><circle class="cls-6" cx="421.65" cy="795.97" r="40.17"/><path class="cls-6" d="M339.07,607.77l-5.44-64.86s-44.23-38.38-56.1-39.07-15.71,15.36-15.71,15.36l-3.66,88.41"/><path class="cls-7" d="M335.45,566.34s-21.24-.87-32.42-18.09l31.43-.81Z"/><circle class="cls-9" cx="299.48" cy="596.65" r="39.45"/><path class="cls-6" d="M284.78,538.48c19.32,17.69,50.72,21.63,64.45,6s4.28-52.53,4.32-57.19c.23-27.23-2.63-36.86-9.34-45-16.29-19.79-68.89-17-82.39,9.08-12.31,23.77,2.79,63.77,2.79,63.77"/><path class="cls-7" d="M323.56,482.86c.18,2.42-5.16,2.73-11.51,3.21s-11.32.93-11.5-1.49,4.82-4.78,11.18-5.25S323.38,480.43,323.56,482.86Z"/><path class="cls-7" d="M349.65,480.41c.08,2.47-3.2,2.22-7.64,2.36s-7.7,1-7.78-1.46,3.47-4.58,7.91-4.72S349.58,477.94,349.65,480.41Z"/><path class="cls-7" d="M324.45,517.25a62.07,62.07,0,0,1,16.66-.47s-.46,9.26-6.48,9.72C325.4,527.21,324.45,517.25,324.45,517.25Z"/><path class="cls-6" d="M327.55,485.44s.23,5.82,2.56,8.15,4.65.93,6.52,4.66-1.72,7.58-5.25,8.33"/><circle class="cls-7" cx="314.01" cy="492.41" r="2.09"/><circle class="cls-7" cx="343.47" cy="487.9" r="2.09"/><path class="cls-7" d="M252.5,486.83s15.47-13.26,25.37,7.61c0,0,5.24,1.31,8.18-4.59,1.87-3.72,4.67-29.3,10.89-24.39,2.78,2.2.57,12.61.57,12.61s6.85-.39,16.91-1.76c1.94-1.64,8.39-7.56,8.95-14,0,0,2.23,6.68,0,12.59,2-.34,4.09-.71,6.21-1.13,17.68-3.43,24.55-11.78,24.55-11.78s15.72-33.88-32.41-35.35c0,0-40.4-12.61-59.9,8.34C253,444.55,250.05,462.35,252.5,486.83Z"/><path class="cls-5" d="M320.26,428.15A15.93,15.93,0,0,0,308,419.8"/><path class="cls-6" d="M278.74,497s-5.58-14.67-16.06-14c-11.17.75-14.43,9.08-12.56,20.95,2,12.55,13.72,18.39,16.52,18.39,5.35,0,9.08-3.49,9.54-7.68"/><path class="cls-6" d="M257.56,494.17s6.06-5.81,12.11,6.52c0,0-5.59-2.79-8.85-.46"/></g><rect class="cls-5" x="141.19" y="375.26" width="371.56" height="371.56"/><rect class="cls-2" x="602.67" y="123.22" width="371.56" height="371.56" transform="translate(1576.89 618) rotate(180)"/><g class="cls-12"><rect class="cls-6" x="602.67" y="123.22" width="371.56" height="371.56" transform="translate(1576.89 618) rotate(180)"/><path class="cls-1" d="M873.28,422.61s14.45,35.45,9.77,76.39c-1.85,16.27-21.21,56.3-21.21,56.3l-17,73.7s-26.57,9.46-45.7,12c-70.58,9.36-129.7-13-129.7-13l22.76-76.75L679,443.13Z"/><path class="cls-1" d="M677.31,366.05S633.63,544.7,646.76,582.64s245.16,5.6,245.16,5.6,61.52-9.28,64.44-22.41-26.7-184.77-55.88-196.44C880.75,361.5,718.16,326.65,677.31,366.05Z"/><path class="cls-5" d="M882.9,417.33S909,542.94,889.11,606.45c-5.66,18-43.46,22.55-43.46,22.55"/><polyline class="cls-5" points="670.25 627.97 693.02 551.22 679.81 443.13"/><path class="cls-1" d="M916.17,389.89a65.17,65.17,0,0,0-30.28-33.79c-39-20.47-136.73-19.15-173.58-8.62s-56.5,29.26-67.85,49.89"/><path class="cls-6" d="M824.37,341.37,820,285.28S773.5,245,761,244.23s-16.51,16.14-16.51,16.14l-2.95,79.76a120.6,120.6,0,0,0,18,10"/><path class="cls-7" d="M781.25,294.06s11.52,17.58,40.93,18.05l-1.24-28.79Z"/><circle class="cls-9" cx="783.18" cy="336.74" r="41.19"/><path class="cls-6" d="M763,281.45c18.21,21.48,56.08,21.52,70.51,5.13s7.31-54.8,7.35-59.69c.25-28.62-2.76-38.73-9.81-47.29-17.11-20.79-72.38-17.86-86.57,9.53-12.93,25,2.94,67,2.94,67"/><path class="cls-7" d="M803.21,222c.19,2.55-5.42,2.88-12.1,3.38s-11.89,1-12.08-1.57,5.07-5,11.74-5.51S803,219.41,803.21,222Z"/><path class="cls-7" d="M834.48,219.85c.08,2.6-3.37,2.34-8,2.48s-8.09,1.07-8.17-1.53,3.65-4.82,8.31-5S834.4,217.25,834.48,219.85Z"/><path class="cls-6" d="M809.81,229.3s.25,6.12,2.69,8.56,4.89,1,6.85,4.89-1.81,8-5.51,8.76"/><circle class="cls-7" cx="791.87" cy="232.65" r="2.2"/><circle class="cls-7" cx="825.37" cy="229.97" r="2.2"/><path class="cls-7" d="M781.43,203.91c-6.3,5.45-9.49,21.72-11.44,25.63-3.09,6.19-8.6,4.81-8.6,4.81-10.4-21.92-26.65-8-26.65-8-2.58-25.72.49-44.42,9.8-54.43,20.48-22,62.94-8.77,62.94-8.77,50.56,1.55,48.32,35,48.32,35,.63,10-14.32,13.08-28,10S794.22,192.84,781.43,203.91Z"/><path class="cls-6" d="M762.31,237s-5.87-15.4-16.87-14.67c-11.74.78-15.17,9.54-13.21,22,2.07,13.19,14.42,19.32,17.36,19.32,5.63,0,9.54-3.67,10-8.07"/><path class="cls-6" d="M740.06,234.08s6.35-6.12,12.71,6.85c0,0-5.87-2.94-9.29-.49"/><path class="cls-7" d="M816.75,260.59s-8.3-.39-15.11-1.09c0,0,0,9.22,5.76,10S816.75,260.59,816.75,260.59Z"/><path class="cls-5" d="M674.38,385s13.41-18.57,35.08-24.76"/><path class="cls-7" d="M607.06,523.51,623.82,546s-1.29-34.83-12.12-54.17Z"/><path class="cls-7" d="M548.25,576.77s18.83-.9,24-22,10.32-55.2,10.32-55.2-.51,74.28-18,100.08Z"/><path class="cls-1" d="M703.82,455.62s-9.34,85.92-51.45,160.49c-11.46,20.28-45.53,27.85-65.14,11.35-17.92-15.09-106.54-152-106.54-152L524.3,417l83,105.24s11.35-120.72,64-155.8"/><path class="cls-6" d="M525.84,419c-26-13.43-87.62-34-97.52-30.44-9,3.21-3,10.6-3,10.6s-10.37-3.21-13.5,4.1c-2.07,4.83,3.56,10.9,3.56,10.9s-6.82,4.9-2.11,11.64c3.31,4.74,14.48,9.66,14.48,9.66s-10,5.82-2.47,12.5,62.93,36,62.93,36"/><path class="cls-6" d="M526.36,420.07c-8.25-13.93-42.93-47.92-52.43-44.86-9.18,3,8.78,29.17,8.78,29.17a49.07,49.07,0,0,0,12.83,32"/><path class="cls-6" d="M425.29,399.2s31.13,9.65,49.31,18.73"/><path class="cls-6" d="M415.35,414.2s33,9.38,51,17.94"/><path class="cls-6" d="M427.72,435.5s24.33,7.82,33.42,12.36"/><path class="cls-5" d="M655.81,378.8s35.87-5.36,45.21,46"/><path class="cls-1" d="M785.15,347s-9.34,17.43-10.59,26.77c0,0-22.11-6.23-33.94-19.3l-10.26-8.24,11.52-23.51c2.49,3.19,9.34,11,47.63,21.77L798.22,370l6.23-26.12s12.14-4.36,19.3-15.68l9.34,25.55-4.36,5.05c-3.73,4.36-11.21,8.71-11.21,8.71L808.81,347"/><path class="cls-5" d="M798.22,370s18.68,57.28,12.46,100.24"/><polygon class="cls-4" points="788.56 338.26 797.9 370.01 804.13 337.02 788.56 338.26"/><path class="cls-1" d="M789.51,344.47s8.55,25.86,10.42,32.7"/><line class="cls-1" x1="804.45" y1="343.89" x2="798.22" y2="370.01"/></g><rect class="cls-5" x="602.67" y="123.22" width="371.56" height="371.56" transform="translate(1576.89 618) rotate(180)"/><circle class="cls-13" cx="895.67" cy="908.14" r="48.26"/><path class="cls-4" d="M1003.69,775.18c-16.94,66.55-46.68,133.48-71.4,163.94-10.39,12.8-79.72-56.2-79.72-56.2s50.34-126.4,63.62-151.46"/><path class="cls-5" d="M852.57,882.92s50.34-126.4,63.62-151.46"/><path class="cls-5" d="M1003.69,775.18c-16.94,66.55-46.68,133.48-71.4,163.94"/><circle class="cls-9" cx="956.42" cy="761.36" r="48.26"/><path class="cls-6" d="M914.09,951.77c-39,8.17-180.86-29.86-180.86-29.86s-18-66.82-.1-67.07c33.66-.46,100.18,6.51,100.18,6.51"/><path class="cls-6" d="M893.06,877c-11.26-5.33-20.82-19-29.63-22.52C837.4,844,823.1,860,823.1,860c11.85,12.44,6.51,84.14,6.51,84.14s3,6.52,10.08,7.71,59.92,7.47,74.4-.12"/><circle class="cls-9" cx="737.91" cy="889.25" r="34.38"/><path class="cls-6" d="M743.27,854.67s-37.14.37-52.92,4.82c-19.28,5.43-39.89,14.46-51,37.78-3.08,6.45-9.2,20.19-10.7,30.56-1.45,10,3.89,10.2,3.89,10.2,1.15,6.27,8.89,3.18,8.89,3.18s8.14,8.26,13.79-2.22c11.62-21.5,21.43-24,21.43-24s-5.27,11.48-6.49,15.14c-2.64,8-5.08,16.6,2.11,16.44,5.79-.12,21.84-22.94,21.84-22.94a232,232,0,0,0,42-.67"/><path class="cls-6" d="M676.09,916.4a84.09,84.09,0,0,1,6.36-11.1"/><path class="cls-6" d="M641.44,941.21s9.63-19.28,12.61-26.3c4.73-11.13,18.61-18.48,18.61-18.48"/><path class="cls-6" d="M632.55,938s6.12-18.35,10.38-28.75c6.63-16.17,18-23.2,18-23.2"/><path class="cls-7" d="M990.93,507.74s23-32.2,51-15.41c17.78,10.67,16,26.67,18.67,44.45,6.08,40.59,36.44,39.11,44.44,58.66,7.13,17.44-10.67,27.56-10.67,27.56s21.34,51.55-18.66,82.67c-22.67,17.63-66.67,9.77-82.67-40C984,637.53,990.93,507.74,990.93,507.74Z"/><path class="cls-6" d="M1265,793.31l-72.88,314.24-1.26,5.25a30.35,30.35,0,0,1-29.52,23.3H963.68a28.54,28.54,0,0,1,28.55-28.55h177.62l67.84-294.34a25.78,25.78,0,0,1,25.1-20Q1263.87,793.22,1265,793.31Z"/><polygon class="cls-6" points="1163.4 1138.42 1248.56 1476.78 1232.85 1476.78 1130.78 1138.11 1163.4 1138.42"/><polygon class="cls-6" points="987.49 1138.42 902.33 1476.78 918.04 1476.78 1020.11 1138.11 987.49 1138.42"/><polygon class="cls-7" points="982.33 1158.55 1016.11 1152.33 1020.11 1138.11 987.49 1138.42 982.33 1158.55"/><polygon class="cls-7" points="1130.78 1138.11 1136.11 1153.22 1167.22 1155 1163.4 1138.42 1130.78 1138.11"/><circle class="cls-1" cx="1040.19" cy="950.19" r="97.02"/><path class="cls-6" d="M945.89,965.22s-24.29-91.57-29.33-107.55C910,837,890,764.51,921,719.89c19.39-27.88,25.21-31.63,25.21-31.63l19.41-16.58,57.53-1.2h.08a.35.35,0,0,0,.13,0c2,.36,25.89-.34,50.53,28.92,25.56,30.36,62.47,174.54,71.55,236,2.54,17.13-9.33,28-9.33,28"/><path class="cls-6" d="M1025.2,671.85l-2-66.19s-3.89-16.25-15.91-15.54-56.77,39.54-56.77,39.54l-5.06,59.11"/><path class="cls-7" d="M948.19,658.16s20.73-1.65,32-19.08l-30.39-.23Z"/><circle class="cls-9" cx="985.4" cy="676.82" r="38.81"/><path class="cls-14" d="M674.41,1476.78H419.57s-4.86-48.39,22.72-61.07c21.76-10,73.85-18.93,73.85-18.93s6.63,46.39,25.56,61.53l132.8,1.35a8.56,8.56,0,0,1,8.44,7.85h0A8.56,8.56,0,0,1,674.41,1476.78Z"/><circle class="cls-6" cx="641.74" cy="1366.35" r="66.55"/><path class="cls-6" d="M519.81,1351.89s-7.25-6.67-13.48-12.89-27.55-10.67-29.33,8.89,28.44,30.22,28.44,30.22c20.45,28.44,125.49,81.63,149.49,81.63s30.51-19.85,35-30.52L704,1392.48"/><path class="cls-6" d="M525,1337.22s-24-18.67-30.22-3.55"/><path class="cls-6" d="M537.44,1335.44s-17.77-17.77-29.33-8.89"/><path class="cls-6" d="M523.22,1324.78c8.89-8.89,24.89,7.11,24.89,7.11s12-2.22,30.67,6.66"/><path class="cls-6" d="M941.44,710.11c-6.21-8.69-11.43-14.87,4.75-35.56l.59,15.12s.89,12.14,6.52,13.62"/><path class="cls-6" d="M1025.3,647.89c25.48,7.7,27.26,33.78,27.26,33.78s-56.26,7.71-90.18,32.66"/><line class="cls-6" x1="1024.11" y1="666.55" x2="1024.11" y2="638.11"/><path class="cls-6" d="M1031.81,664.48s-58.07,16-80,48.59"/><ellipse class="cls-7" cx="970.78" cy="702.41" rx="3.85" ry="2.96"/><path class="cls-14" d="M968.7,702.41s-21,70.81-17.48,88.59a21.41,21.41,0,0,0,2.08,1.78s-1.19,5.63.89,5.92,1.48-5.63,1.48-5.63a13,13,0,0,0,2.37-3.26c.59-1.48.29-23.4,4.74-40.29s10.66-45.34,10.66-45.34S972.85,700.63,968.7,702.41Z"/><ellipse class="cls-7" cx="941.93" cy="699.59" rx="3.85" ry="2.96"/><path class="cls-14" d="M939.81,699.29s-21,70.82-17.48,88.6a21.41,21.41,0,0,0,2.08,1.78s-1.19,5.62.89,5.92,1.48-5.63,1.48-5.63a12.73,12.73,0,0,0,2.37-3.26c.59-1.48.29-23.41,4.74-40.29s10.67-45.34,10.67-45.34S944,697.52,939.81,699.29Z"/><polyline class="cls-6" points="705.82 1385.65 747.05 1272.88 795.82 1131.88 673.89 1055 576.11 1352.78"/><path class="cls-6" d="M720.73,1100.79l47.38,268s-32.32,42.09-43.26,53c-.17.18-1,1.61-1.18,1.78-27.77,28.1,111.11,26.52,111.11,26.52l67-58.35a36.51,36.51,0,0,0,11.93-34.09L869.3,1114.61"/><path class="cls-14" d="M853.44,1432.78s-9.33-19.11-28.44-25.34c-21.08-6.86-56.12-5.5-77.78-3.74a48.88,48.88,0,0,0-31.7,15.29c-2.3,2.44-4.42,4.72-5.88,6.33-21.4,23.54-12.49,51.46,4.84,51.46H851.07s83-45.63,91.86-53.93,5.92-33.18-37.34-33.78Z"/><path class="cls-7" d="M853.44,1433.22s4.45,13.48,3.26,19.41l32.74-49.48Z"/><path class="cls-1" d="M1136.56,963.44s16.71,52.73,12.92,77.58c-5.37,35.31-39.3,60.91-71.15,63.82l-188.94,19.3,35.17,194c-35.56,35.56-168.89,35.56-168.89,35.56l-7.56-39.56-24.44,59.11c-88.89-23.11-140.45-112-140.45-112l82.25-217.37a80.7,80.7,0,0,1,65.86-51.56l220-26.38S1050.78,985.67,1136.56,963.44Z"/><path class="cls-1" d="M749.44,1323.44l-18.51-224.36a58.73,58.73,0,0,1,45-62l175.34-42.55"/><path class="cls-7" d="M890.78,1122.55l-39.51,5.53s53.34,73.77,53.34,71.11S890.78,1122.55,890.78,1122.55Z"/><path class="cls-6" d="M996.13,629.46c-19.55,17.9-50.88,21.2-64.78,5.41s1.22-59.35,1.18-64.07c-.24-27.56.51-36.75,7.3-45,16.49-20,69.73-17.2,83.4,9.18,12.45,24.06-2.83,64.55-2.83,64.55"/><path class="cls-7" d="M951.92,564.45c-.54,2.87,5.55,3.91,12.78,5.27s12.87,2.51,13.41-.37S973.23,563,966,561.69,952.46,561.57,951.92,564.45Z"/><path class="cls-7" d="M932.2,563.84c-.08,2.6,2.52,2.32,6,2.43s6.09,1,6.17-1.6-2.71-4.81-6.23-4.92S932.28,561.23,932.2,563.84Z"/><path class="cls-6" d="M944.19,571.2s-.24,5.89-2.59,8.24-4.71.94-6.6,4.71,2.36,7.54,3.54,7.54"/><path class="cls-7" d="M951.67,607.44c-3-3-16.78,1-16.78,1s-.11,8.73,5.22,10.06S954.5,610.28,951.67,607.44Z"/><circle class="cls-7" cx="962.37" cy="579.44" r="2.12"/><circle class="cls-7" cx="937.54" cy="575.81" r="2.12"/><path class="cls-7" d="M995.11,551.83c-28.11-1.94-44.45-15-45.48-16.75,0,0-12,3.07-16.41,17.78,0,0-8.33-11.68.22-30,16.18-34.67,76.7-17.57,86.68,1.29,9.23,17.44,7.15,40.85,7.15,40.85l-15.92,14.71a8.61,8.61,0,0,1-6.32-5C1003,570.3,995.11,551.83,995.11,551.83Z"/><path class="cls-6" d="M1011,580s5.65-14.84,16.25-14.14c11.3.76,14.61,9.19,12.72,21.2-2,12.71-13.89,18.61-16.72,18.61-5.42,0-9.19-3.53-9.66-7.77"/><path class="cls-6" d="M1032.41,577.16s-6.12-5.89-12.25,6.6c0,0,5.66-2.83,8.95-.48"/><path class="cls-5" d="M949.63,535.08s7.81,16.14,26.48,19"/><path class="cls-15" d="M1027.23,565.85s2.21-28.18-8.45-42.41"/><circle class="cls-6" cx="921.74" cy="889.25" r="34.38"/><circle class="cls-13" cx="1079.1" cy="907.37" r="48.26"/><path class="cls-4" d="M1092.12,736.57c24,64.34,37.69,136.29,34.72,175.4-1.24,16.44-97.53-.77-97.53-.77s-30.64-132.56-34-160.71"/><path class="cls-5" d="M1029.31,911.2s-30.64-132.56-34-160.71"/><path class="cls-5" d="M1092.12,736.57c24,64.34,37.69,136.29,34.72,175.4"/><circle class="cls-9" cx="1045.4" cy="752.14" r="48.26"/><path class="cls-6" d="M1097.92,951.77c-39,8.17-180.86-29.86-180.86-29.86s-18-66.82-.1-67.07c33.66-.46,100.18,6.51,100.18,6.51"/><path class="cls-6" d="M1046.63,876c-11.26-5.34-20.15-23.12-29.63-22.52s-10.07,6.52-10.07,6.52c11.85,12.44,6.51,84.14,6.51,84.14s3,6.52,10.08,7.71,59.92,7.47,74.4-.12"/><path class="cls-6" d="M1027.07,857.67c1.78-.6,21.34,6.51,26.67.59"/><path class="cls-6" d="M927.1,854.67s-37.14.37-52.92,4.82c-19.28,5.43-39.89,14.46-51,37.78-3.08,6.45-9.2,20.19-10.7,30.56-1.45,10,3.89,10.2,3.89,10.2,1.15,6.27,8.89,3.18,8.89,3.18s8.14,8.26,13.79-2.22c11.62-21.5,21.43-24,21.43-24s-5.27,11.48-6.49,15.14c-2.64,8-5.08,16.6,2.11,16.44C861.9,946.42,878,923.6,878,923.6a232,232,0,0,0,42-.67"/><path class="cls-6" d="M859.92,916.4a84.09,84.09,0,0,1,6.36-11.1"/><path class="cls-6" d="M825.27,941.21s9.63-19.28,12.61-26.3c4.73-11.13,18.61-18.48,18.61-18.48"/><path class="cls-6" d="M816.38,938s6.12-18.35,10.38-28.75c6.63-16.17,18-23.2,18-23.2"/><rect class="cls-6" x="401.89" y="951.89" width="725.33" height="24.89"/><polygon class="cls-6" points="1026.29 979.01 1111.44 1476.78 1095.74 1476.78 993.67 978.55 1026.29 979.01"/><polygon class="cls-7" points="993.67 978.55 999 1000.78 1030.11 1003.4 1026.29 979.01 993.67 978.55"/><polygon class="cls-6" points="502.82 979.01 417.67 1476.78 433.37 1476.78 535.44 978.55 502.82 979.01"/><polygon class="cls-7" points="535.44 978.55 530.11 1000.78 499 1003.4 502.82 979.01 535.44 978.55"/><path class="cls-7" d="M822.44,947.7h-273L529.37,800a5,5,0,0,1,5-5.81H795.73a6.87,6.87,0,0,1,6.6,5.81Z"/><path class="cls-1" d="M816.08,947.7h-273L523,800a5,5,0,0,1,5-5.81H789.37A6.87,6.87,0,0,1,796,800Z"/><path class="cls-1" d="M934.49,951.68H548.8a6,6,0,0,1-5.9-5.06l-.69-4.49H945.8C945.8,947.4,940.74,951.68,934.49,951.68Z"/><ellipse class="cls-1" cx="669.15" cy="870.93" rx="14.86" ry="17.03" transform="translate(-424.07 765.33) rotate(-46.95)"/><line class="cls-6" x1="1307.11" y1="1476.78" x2="269.78" y2="1476.78"/></svg>